<svg xmlns="http://www.w3.org/2000/svg" width="114.844" height="118.38" viewBox="0 0 114.844 118.38"><defs><style>.cls-1{fill-rule:evenodd}</style></defs><clippath id="clippath"><path id="Shape_1_copy_6" d="M770.245,1446.34c-29.462,22.13-29.49,22.15-29.564,22.2a7.969,7.969,0,0,1-4.585,1.43c-0.311,0-.468,0-70.65-10.24a8.025,8.025,0,0,1-6.855-7.88c0.011-71.49.032-71.64,0.076-71.94a7.9,7.9,0,0,1,2.525-4.75l0.93-.73,29.113-21.28a8.307,8.307,0,0,1,1.536-.91,7.935,7.935,0,0,1,3.088-.66c0.038,0,.178.01,0.283,0.02,3.62,0.47,63.374,8.8,70.765,9.83a6.767,6.767,0,0,1,2.067.61,7.977,7.977,0,0,1,2.855,2.37,7.859,7.859,0,0,1,1.593,4.76v70.82A7.892,7.892,0,0,1,770.245,1446.34Z" class="cls-1" data-name="Shape 1 copy 6" transform="translate(-658.594 -1351.59)"/></clippath></svg>