<svg width="0" height="0" id="Layer_1" data-name="Layer 1" xmlns="http://www.w3.org/2000/svg" viewBox="0 0 114.84 118.38">
  <defs>
    <clipPath id="clippath">
      <path fill="#FFFFFF" stroke="#000000" stroke-width="1.5794" id="Shape_1_copy_6" data-name="Shape 1 copy 6"
      d="M111.65,94.75l-17,12.8-8.76,6.58-3.25,2.44-.51.38a8,8,0,0,1-4.59,1.43,12.85,12.85,0,0,1-1.3-.16l-7.82-1.12-20.92-3-40.6-5.92A8,8,0,0,1,0,100.26C0,82.39,0,69,0,58.9S0,42.1,0,37.59s0-6.79,0-8a13.05,13.05,0,0,1,0-1.31A7.9,7.9,0,0,1,2.6,23.57l.23-.18.23-.18L3.3,23l.23-.18,7.28-5.32,7.28-5.32,7.28-5.32,7.28-5.32L33,1.3l.38-.24.39-.22.4-.2a7.94,7.94,0,0,1,.74-.28q.38-.12.77-.2A7.93,7.93,0,0,1,37.26,0h.28L49.09,1.6,71.52,4.71,94.65,7.94l13.67,1.9.53.09.52.13.51.17.5.21a8,8,0,0,1,2.85,2.37,7.86,7.86,0,0,1,1.59,4.76V88.4a7.89,7.89,0,0,1-3.18,6.35Z" />
    </clipPath>
  </defs>
</svg>